# xmcd
#
# Track frame offsets:
#	150
#	27994
#	43489
#	58896
#	79639
#	106810
#	120806
#	138226
#	157475
#	177074
#	194097
#	206934
#	218869
#	238288
#	255588
#
# Disc length: 3669 seconds
# Revision: 0
# Processed by: cddbd v1.5.2PL0 Copyright (c) Steve Scherf et al.
# Submitted via: dBpowerAMP V12.0
#
DISCID=e30e530f
DTITLE=Various Artist - In Safe Hands
DYEAR=2015
DGENRE=Blues
TTITLE0=Joe Bonamassa - I Gave Up Everything For You, 'Cept The Blues (live)
TTITLE1=Chantel McGregor - Southern Belle
TTITLE2=Hamish Anderson - Little Lies
TTITLE3=King King - Crazy
TTITLE4=Jo Harman - Two Shades Of Hope
TTITLE5=Eliza Neals - Detroit Drive
TTITLE6=Robert Cray - Bad Influence (live)
TTITLE7=Joe Louis Walker - Young Girls Blues
TTITLE8=Jay Jesse Johnson - Ghosts In Texas
TTITLE9=Canned Heat - Future Blues
TTITLE10=The Boo Hoos - Song For The Disappeared
TTITLE11=Ben Hemming - The Old Country
TTITLE12=Dirty Thrills - Feelin'
TTITLE13=The Rainbreakers - Blood Not Brass
TTITLE14=Jack J Hutchinson Band - Loving Man
EXTD=
EXTT0=
EXTT1=
EXTT2=
EXTT3=
EXTT4=
EXTT5=
EXTT6=
EXTT7=
EXTT8=
EXTT9=
EXTT10=
EXTT11=
EXTT12=
EXTT13=
EXTT14=
PLAYORDER=
